<?xml version="1.0" standalone="no"?>
<svg xmlns:xlink="http://www.w3.org/1999/xlink" id="wave" style="transform:rotate(0deg); transition: 0.3s" viewBox="0 0 1440 490" version="1.1" xmlns="http://www.w3.org/2000/svg"><defs><linearGradient id="sw-gradient-0" x1="0" x2="0" y1="1" y2="0"><stop stop-color="rgba(13, 33, 73, 1)" offset="0%"/><stop stop-color="rgba(109, 157, 197, 1)" offset="100%"/></linearGradient></defs><path style="transform:translate(0, 0px); opacity:1" fill="url(#sw-gradient-0)" d="M0,392L80,326.7C160,261,320,131,480,98C640,65,800,131,960,187.8C1120,245,1280,294,1440,334.8C1600,376,1760,408,1920,359.3C2080,310,2240,180,2400,122.5C2560,65,2720,82,2880,122.5C3040,163,3200,229,3360,212.3C3520,196,3680,98,3840,122.5C4000,147,4160,294,4320,326.7C4480,359,4640,278,4800,228.7C4960,180,5120,163,5280,179.7C5440,196,5600,245,5760,277.7C5920,310,6080,327,6240,334.8C6400,343,6560,343,6720,310.3C6880,278,7040,212,7200,171.5C7360,131,7520,114,7680,122.5C7840,131,8000,163,8160,204.2C8320,245,8480,294,8640,269.5C8800,245,8960,147,9120,89.8C9280,33,9440,16,9600,73.5C9760,131,9920,261,10080,261.3C10240,261,10400,131,10560,114.3C10720,98,10880,196,11040,245C11200,294,11360,294,11440,294L11520,294L11520,490L11440,490C11360,490,11200,490,11040,490C10880,490,10720,490,10560,490C10400,490,10240,490,10080,490C9920,490,9760,490,9600,490C9440,490,9280,490,9120,490C8960,490,8800,490,8640,490C8480,490,8320,490,8160,490C8000,490,7840,490,7680,490C7520,490,7360,490,7200,490C7040,490,6880,490,6720,490C6560,490,6400,490,6240,490C6080,490,5920,490,5760,490C5600,490,5440,490,5280,490C5120,490,4960,490,4800,490C4640,490,4480,490,4320,490C4160,490,4000,490,3840,490C3680,490,3520,490,3360,490C3200,490,3040,490,2880,490C2720,490,2560,490,2400,490C2240,490,2080,490,1920,490C1760,490,1600,490,1440,490C1280,490,1120,490,960,490C800,490,640,490,480,490C320,490,160,490,80,490L0,490Z"/><defs><linearGradient id="sw-gradient-1" x1="0" x2="0" y1="1" y2="0"><stop stop-color="rgba(13, 33, 73, 1)" offset="0%"/><stop stop-color="rgba(109, 157, 197, 1)" offset="100%"/></linearGradient></defs><path style="transform:translate(0, 50px); opacity:0.9" fill="url(#sw-gradient-1)" d="M0,0L80,57.2C160,114,320,229,480,245C640,261,800,180,960,122.5C1120,65,1280,33,1440,16.3C1600,0,1760,0,1920,49C2080,98,2240,196,2400,220.5C2560,245,2720,196,2880,171.5C3040,147,3200,147,3360,187.8C3520,229,3680,310,3840,285.8C4000,261,4160,131,4320,89.8C4480,49,4640,98,4800,163.3C4960,229,5120,310,5280,294C5440,278,5600,163,5760,130.7C5920,98,6080,147,6240,179.7C6400,212,6560,229,6720,228.7C6880,229,7040,212,7200,187.8C7360,163,7520,131,7680,106.2C7840,82,8000,65,8160,81.7C8320,98,8480,147,8640,155.2C8800,163,8960,131,9120,106.2C9280,82,9440,65,9600,81.7C9760,98,9920,147,10080,163.3C10240,180,10400,163,10560,196C10720,229,10880,310,11040,359.3C11200,408,11360,425,11440,432.8L11520,441L11520,490L11440,490C11360,490,11200,490,11040,490C10880,490,10720,490,10560,490C10400,490,10240,490,10080,490C9920,490,9760,490,9600,490C9440,490,9280,490,9120,490C8960,490,8800,490,8640,490C8480,490,8320,490,8160,490C8000,490,7840,490,7680,490C7520,490,7360,490,7200,490C7040,490,6880,490,6720,490C6560,490,6400,490,6240,490C6080,490,5920,490,5760,490C5600,490,5440,490,5280,490C5120,490,4960,490,4800,490C4640,490,4480,490,4320,490C4160,490,4000,490,3840,490C3680,490,3520,490,3360,490C3200,490,3040,490,2880,490C2720,490,2560,490,2400,490C2240,490,2080,490,1920,490C1760,490,1600,490,1440,490C1280,490,1120,490,960,490C800,490,640,490,480,490C320,490,160,490,80,490L0,490Z"/></svg>