<svg width="474" height="124" viewBox="0 0 474 124" fill="none" xmlns="http://www.w3.org/2000/svg">
<path d="M10.848 79.768C9.65333 79.768 8.62933 79.3413 7.776 78.488C6.92267 77.6347 6.496 76.1413 6.496 74.008C6.496 72.1307 6.624 69.912 6.88 67.352C7.22133 64.792 7.69067 62.1893 8.288 59.544C8.88533 56.8133 9.568 54.424 10.336 52.376C8.88533 54.5093 7.264 56.728 5.472 59.032C3.68 61.2507 2.18667 63.128 0.992 64.664C0.736 65.0053 0.522667 65.176 0.352 65.176C0.181334 65.176 0.0960002 64.9627 0.0960002 64.536C0.0960002 63.8533 0.309333 63.2133 0.736 62.616C2.528 60.1413 4.53333 57.3253 6.752 54.168C9.056 51.0107 11.0187 48.152 12.64 45.592C13.5787 45.4213 14.688 45.1653 15.968 44.824C17.3333 44.4827 18.3147 44.0133 18.912 43.416C19.3387 43.16 19.5947 43.032 19.68 43.032C19.936 43.032 20.064 43.2027 20.064 43.544C20.064 43.8 19.936 44.0987 19.68 44.44C18.912 45.5493 18.0587 47.2987 17.12 49.688C16.1813 51.992 15.2853 54.5947 14.432 57.496C13.5787 60.312 12.8533 63.0853 12.256 65.816C11.744 68.5467 11.488 70.808 11.488 72.6C11.488 73.9653 11.7013 74.904 12.128 75.416C12.64 75.928 13.1947 76.184 13.792 76.184C14.9867 76.184 16.224 75.6293 17.504 74.52C18.8693 73.4107 20.192 72.0453 21.472 70.424C22.8373 68.8027 24.032 67.224 25.056 65.688C26.08 64.152 26.848 62.9573 27.36 62.104C29.0667 59.3733 30.688 56.4293 32.224 53.272C33.8453 50.0293 35.2107 47.4693 36.32 45.592C37.2587 45.4213 38.368 45.1653 39.648 44.824C41.0133 44.4827 42.0373 44.0133 42.72 43.416C42.976 43.16 43.1893 43.032 43.36 43.032C43.616 43.032 43.744 43.2027 43.744 43.544C43.8293 43.8 43.744 44.0987 43.488 44.44C42.72 45.5493 41.9093 47.256 41.056 49.56C40.2027 51.864 39.3493 54.424 38.496 57.24C37.728 59.9707 37.088 62.7013 36.576 65.432C36.064 68.0773 35.808 70.3387 35.808 72.216C35.808 74.776 36.7467 76.056 38.624 76.056C39.904 76.056 41.312 75.5867 42.848 74.648C44.4693 73.7093 45.792 72.728 46.816 71.704C49.7173 68.7173 52.1493 65.7733 54.112 62.872C56.0747 59.9707 57.7387 56.6427 59.104 52.888C59.616 51.608 59.9573 50.4987 60.128 49.56C60.2987 48.536 60.384 47.5973 60.384 46.744C60.384 45.5493 60.1707 44.6107 59.744 43.928C59.4027 43.16 59.0187 42.7333 58.592 42.648C58.1653 42.4773 57.952 42.264 57.952 42.008C57.952 41.8373 58.1653 41.6667 58.592 41.496C59.0187 41.24 59.488 41.1547 60 41.24C61.3653 41.5813 62.5173 42.2213 63.456 43.16C64.48 44.0133 64.992 45.2933 64.992 47C64.992 48.3653 64.6933 49.816 64.096 51.352C62.9013 54.5093 61.152 57.7947 58.848 61.208C56.6293 64.536 54.112 67.6507 51.296 70.552C48.48 73.4533 45.536 75.8 42.464 77.592C41.3547 78.1893 40.2027 78.7013 39.008 79.128C37.8133 79.5547 36.6613 79.768 35.552 79.768C34.1867 79.768 32.992 79.3413 31.968 78.488C31.0293 77.6347 30.56 76.1413 30.56 74.008C30.56 71.7893 30.7733 69.144 31.2 66.072C31.712 63 32.352 60.0133 33.12 57.112C32.5227 58.0507 31.9253 59.0747 31.328 60.184C30.816 61.208 30.2187 62.2747 29.536 63.384C27.4027 66.456 25.184 69.3573 22.88 72.088C20.6613 74.8187 18.7413 76.6533 17.12 77.592C16.096 78.1893 15.0293 78.7013 13.92 79.128C12.8107 79.5547 11.7867 79.768 10.848 79.768ZM66.4 79.256C65.0347 79.256 63.7973 79 62.688 78.488C61.664 77.8907 61.152 76.6533 61.152 74.776C61.152 71.7893 61.92 68.8027 63.456 65.816C64.992 62.744 66.5707 60.056 68.192 57.752C69.6427 55.7893 71.264 53.9547 73.056 52.248C74.9333 50.456 76.9387 48.92 79.072 47.64C80.4373 46.7867 82.272 45.8907 84.576 44.952C86.9653 43.928 88.9707 43.416 90.592 43.416C91.9573 43.416 93.152 43.8 94.176 44.568C95.2 45.2507 95.712 46.5307 95.712 48.408C95.712 51.3093 94.944 54.296 93.408 57.368C91.9573 60.3547 90.4213 63 88.8 65.304C88.032 66.328 87.264 67.3093 86.496 68.248C85.728 69.1013 84.8747 69.9973 83.936 70.936C87.0933 70.936 89.9947 70.04 92.64 68.248C95.2853 66.3707 97.5893 64.1093 99.552 61.464L99.808 61.208C100.064 61.208 100.192 61.464 100.192 61.976C100.192 62.5733 100.021 63.128 99.68 63.64C97.9733 66.0293 95.84 68.1627 93.28 70.04C90.72 71.832 87.8187 72.728 84.576 72.728C84.2347 72.728 83.8933 72.728 83.552 72.728C83.2107 72.728 82.8693 72.6853 82.528 72.6C77.7493 77.0373 72.3733 79.256 66.4 79.256ZM69.728 77.08C70.9227 77.08 72.2027 76.6533 73.568 75.8C75.0187 74.9467 76.128 74.136 76.896 73.368C78.3467 71.9173 79.6693 70.3813 80.864 68.76C82.0587 67.0533 83.168 65.3467 84.192 63.64C85.3867 61.592 86.5813 59.16 87.776 56.344C88.9707 53.528 89.568 50.8827 89.568 48.408C89.568 46.4453 88.8853 45.464 87.52 45.464C86.4107 45.464 85.0453 45.9333 83.424 46.872C81.888 47.8107 80.736 48.664 79.968 49.432C77.0667 52.4187 74.6347 55.6613 72.672 59.16C71.5627 61.1227 70.368 63.4267 69.088 66.072C67.808 68.7173 67.168 71.1493 67.168 73.368C67.168 73.7093 67.168 74.0507 67.168 74.392C67.2533 74.648 67.3387 74.9467 67.424 75.288C67.7653 76.4827 68.5333 77.08 69.728 77.08ZM98.995 80.792C98.6537 80.792 98.6537 80.4507 98.995 79.768C99.4217 79 99.8057 78.1467 100.147 77.208C100.574 76.2693 101 75.2453 101.427 74.136C102.28 72.088 103.219 69.784 104.243 67.224C105.267 64.664 106.248 62.1893 107.187 59.8C108.126 57.3253 108.936 55.2347 109.619 53.528C110.387 51.736 110.899 50.584 111.155 50.072C109.96 51.352 108.51 52.9733 106.803 54.936C105.182 56.8133 103.646 58.648 102.195 60.44C100.744 62.232 99.635 63.64 98.867 64.664C98.611 65.0053 98.3977 65.176 98.227 65.176C98.0563 65.176 97.971 64.9627 97.971 64.536C97.971 63.8533 98.1843 63.2133 98.611 62.616C100.232 60.568 102.024 58.264 103.987 55.704C106.035 53.144 107.87 50.7973 109.491 48.664C111.112 46.4453 112.136 44.9947 112.563 44.312C113.502 44.1413 114.867 43.8853 116.659 43.544C118.536 43.2027 119.816 42.7333 120.499 42.136C120.755 41.88 121.011 41.752 121.267 41.752C121.438 41.752 121.523 41.9227 121.523 42.264C121.608 42.52 121.523 42.8187 121.267 43.16C120.755 43.672 119.987 44.7813 118.963 46.488C118.024 48.1947 116.958 50.1573 115.763 52.376C114.568 54.5947 113.416 56.728 112.307 58.776C113.16 57.496 114.27 56.0027 115.635 54.296C117.086 52.504 118.664 50.7973 120.371 49.176C122.078 47.4693 123.784 46.0613 125.491 44.952C127.283 43.8427 128.947 43.288 130.483 43.288C131.592 43.288 132.531 43.544 133.299 44.056C134.067 44.4827 134.664 45.2933 135.091 46.488C135.347 47.0853 135.475 47.768 135.475 48.536C135.475 49.9867 135.091 51.3947 134.323 52.76C133.64 54.04 133.128 55.0213 132.787 55.704C132.702 55.96 132.403 56.216 131.891 56.472C131.379 56.6427 131.166 56.5573 131.251 56.216C131.336 55.7893 131.379 55.3627 131.379 54.936C131.464 54.5093 131.507 54.04 131.507 53.528C131.507 52.0773 131.208 50.7547 130.611 49.56C130.099 48.3653 129.118 47.768 127.667 47.768C126.302 47.768 124.638 48.6213 122.675 50.328C120.712 52.0347 118.75 53.9973 116.787 56.216C114.312 59.1173 112.35 61.8907 110.899 64.536C109.448 67.096 108.254 69.6133 107.315 72.088C106.803 73.4533 106.291 74.8187 105.779 76.184C105.267 77.464 104.883 78.488 104.627 79.256C103.518 79.3413 102.408 79.5973 101.299 80.024C100.19 80.536 99.4217 80.792 98.995 80.792ZM156.014 79.64C153.881 79.64 152.259 78.9147 151.15 77.464C150.467 76.44 149.785 74.904 149.102 72.856C148.419 70.808 147.822 68.6747 147.31 66.456C146.798 64.2373 146.371 62.4453 146.03 61.08C143.641 64.152 141.507 67.224 139.63 70.296C137.838 73.368 136.643 75.7573 136.046 77.464C135.875 77.976 135.278 78.4027 134.254 78.744C133.315 79.0853 132.377 79.256 131.438 79.256C130.073 79.256 129.561 78.8293 129.902 77.976C132.547 72.088 135.065 66.4133 137.454 60.952C139.843 55.4907 142.361 49.9867 145.006 44.44C147.737 38.8933 150.809 33.1333 154.222 27.16C156.611 22.808 159.47 18.6267 162.798 14.616C166.211 10.52 169.838 7.192 173.678 4.632C177.518 1.98666 181.401 0.663994 185.326 0.663994C186.606 0.663994 187.801 1.00533 188.91 1.688C190.019 2.37066 190.574 3.43733 190.574 4.88799V8.6C190.574 8.94133 190.318 9.112 189.806 9.112C189.55 9.112 189.422 9.02666 189.422 8.856C189.422 7.49066 188.825 6.59467 187.63 6.168C186.435 5.656 185.283 5.39999 184.174 5.39999C181.187 5.39999 178.158 5.99733 175.086 7.19199C171.673 8.55733 168.814 10.6053 166.51 13.336C164.206 16.0667 162.073 18.968 160.11 22.04C157.55 25.9653 155.033 30.5733 152.558 35.864C150.083 41.0693 147.779 46.3173 145.646 51.608C143.598 56.8987 141.763 61.6773 140.142 65.944C141.081 64.7493 142.019 63.5547 142.958 62.36C143.897 61.1653 144.793 60.056 145.646 59.032C145.646 58.8613 145.603 58.6907 145.518 58.52C145.518 58.3493 145.518 58.1787 145.518 58.008C145.518 57.4107 145.646 56.8987 145.902 56.472C146.158 56.0453 146.499 55.5333 146.926 54.936C147.523 54.0827 148.078 53.4427 148.59 53.016C149.102 52.504 149.657 51.864 150.254 51.096L150.638 53.272C154.393 49.432 157.678 46.6587 160.494 44.952C162.457 43.7573 164.377 43.16 166.254 43.16C168.131 43.16 169.07 43.8853 169.07 45.336C169.07 46.5307 168.473 48.024 167.278 49.816C166.851 50.4133 166.595 50.84 166.51 51.096C166.425 51.352 166.254 51.608 165.998 51.864C165.913 51.9493 165.742 51.9493 165.486 51.864C165.23 51.7787 165.102 51.6507 165.102 51.48C165.102 50.456 164.761 49.816 164.078 49.56C163.395 49.2187 162.627 49.048 161.774 49.048C160.153 49.048 158.403 49.6453 156.526 50.84C154.734 51.9493 152.899 53.4853 151.022 55.448C151.449 57.5813 151.918 59.928 152.43 62.488C153.027 64.9627 153.667 67.2667 154.35 69.4C155.033 71.5333 155.673 73.112 156.27 74.136C156.697 74.8187 157.294 75.288 158.062 75.544C158.83 75.7147 159.47 75.8 159.982 75.8C161.177 75.8 162.542 75.2027 164.078 74.008C165.699 72.728 167.321 71.2347 168.942 69.528C170.649 67.736 172.185 65.9867 173.55 64.28C175.001 62.5733 176.11 61.208 176.878 60.184C177.219 60.6107 177.305 61.0373 177.134 61.464C177.049 61.976 176.793 62.5307 176.366 63.128C176.025 63.64 175.683 64.1093 175.342 64.536C173.635 66.6693 171.801 68.8453 169.838 71.064C167.875 73.1973 165.785 75.1173 163.566 76.824C162.627 77.592 161.475 78.2747 160.11 78.872C158.745 79.384 157.379 79.64 156.014 79.64Z" fill="#53A700"/>
<path d="M275.331 93.208C272.856 93.208 270.296 92.312 267.651 90.52C265.091 88.8133 262.403 85.9973 259.587 82.072C258.478 80.4507 257.283 78.616 256.003 76.568C254.808 74.52 253.614 72.4293 252.419 70.296C251.054 71.6613 249.646 72.984 248.195 74.264C246.744 75.4587 244.995 76.696 242.947 77.976C239.448 80.1947 236.078 81.7733 232.835 82.712C229.592 83.736 226.52 84.248 223.619 84.248C220.632 84.248 217.902 83.736 215.427 82.712C213.038 81.688 211.075 80.3227 209.539 78.616C207.235 76.056 206.083 73.0693 206.083 69.656C206.083 66.4987 206.894 63.5973 208.515 60.952C210.222 58.3067 212.184 56.0027 214.403 54.04C217.902 50.968 221.742 48.3653 225.923 46.232C230.104 44.0133 234.158 41.752 238.083 39.448L238.211 39.32C237.272 36.3333 236.803 33.4747 236.803 30.744C236.803 29.976 236.846 29.208 236.931 28.44C237.102 27.5867 237.23 26.776 237.315 26.008C237.998 22.936 239.32 20.7173 241.283 19.352C243.331 17.9013 245.379 17.176 247.427 17.176C249.39 17.176 251.054 17.7307 252.419 18.84C253.87 19.9493 254.595 21.4853 254.595 23.448C254.595 25.24 253.912 27.0747 252.547 28.952C251.182 30.8293 249.56 32.5787 247.683 34.2C245.891 35.8213 244.184 37.1867 242.563 38.296C243.246 39.9173 244.184 42.0507 245.379 44.696C246.659 47.256 247.982 49.9013 249.347 52.632H266.499C267.694 52.632 268.888 52.632 270.083 52.632C271.363 52.5467 272.302 52.248 272.899 51.736C273.07 51.5653 273.24 51.5227 273.411 51.608C273.582 51.6933 273.582 51.9067 273.411 52.248L271.107 55.704C270.851 56.3013 270.339 56.6 269.571 56.6C269.315 56.6 269.016 56.6 268.675 56.6C268.334 56.6 267.907 56.5573 267.395 56.472C266.371 56.3013 265.262 56.1733 264.067 56.088C262.958 55.9173 261.806 55.7893 260.611 55.704C260.27 57.24 259.715 58.904 258.947 60.696C258.179 62.488 257.326 64.1093 256.387 65.56C257.923 68.2053 259.459 70.7653 260.995 73.24C262.531 75.6293 263.939 77.6773 265.219 79.384C267.779 82.6267 270.168 84.9307 272.387 86.296C274.606 87.6613 276.654 88.344 278.531 88.344C281.432 88.344 284.035 87.2347 286.339 85.016C288.728 82.8827 290.862 80.5787 292.739 78.104C292.995 77.7627 293.251 77.592 293.507 77.592C293.934 77.592 294.147 77.848 294.147 78.36C294.147 78.872 293.976 79.2987 293.635 79.64C290.648 83.8213 287.662 87.1067 284.675 89.496C281.688 91.9707 278.574 93.208 275.331 93.208ZM242.051 36.888C244.526 35.1813 246.744 33.2613 248.707 31.128C250.755 28.9093 252.078 26.6907 252.675 24.472C252.76 24.216 252.803 23.96 252.803 23.704C252.803 23.448 252.803 23.2347 252.803 23.064C252.803 21.6133 252.334 20.5467 251.395 19.864C250.456 19.096 249.39 18.712 248.195 18.712C246.83 18.712 245.422 19.2667 243.971 20.376C242.606 21.4 241.624 23.1493 241.027 25.624C240.942 26.136 240.856 26.648 240.771 27.16C240.771 27.672 240.771 28.184 240.771 28.696C240.771 30.3173 240.899 31.896 241.155 33.432C241.496 34.8827 241.795 36.0347 242.051 36.888ZM228.611 77.976C233.304 77.976 237.614 77.208 241.539 75.672C243.331 74.9893 245.038 73.9653 246.659 72.6C248.366 71.2347 249.902 69.7413 251.267 68.12C250.499 66.6693 249.518 64.792 248.323 62.488C247.128 60.184 245.848 57.624 244.483 54.808C242.776 54.8933 240.814 55.192 238.595 55.704C236.376 56.216 234.456 57.0693 232.835 58.264C231.299 59.4587 230.616 61.1653 230.787 63.384C230.787 63.9813 230.915 64.7493 231.171 65.688C231.512 66.5413 231.726 67.096 231.811 67.352L230.787 68.12C230.19 67.0107 229.379 65.6453 228.355 64.024C227.416 62.4027 226.904 61.208 226.819 60.44C226.734 59.672 226.734 58.7333 226.819 57.624C226.99 56.5147 227.587 55.5333 228.611 54.68C229.72 53.7413 231.256 53.144 233.219 52.888C235.182 52.5467 237.23 52.376 239.363 52.376C240.046 52.376 240.728 52.4187 241.411 52.504C242.094 52.504 242.734 52.504 243.331 52.504C242.563 50.6267 241.752 48.7067 240.899 46.744C240.131 44.7813 239.363 42.8187 238.595 40.856L237.443 41.624C234.115 43.672 230.616 45.9333 226.947 48.408C223.363 50.8827 220.334 53.656 217.859 56.728C216.75 58.0933 215.768 59.7573 214.915 61.72C214.147 63.6827 213.763 65.6453 213.763 67.608C213.763 68.7173 213.934 69.8693 214.275 71.064C214.702 72.1733 215.342 73.1973 216.195 74.136C217.646 75.5013 219.438 76.4827 221.571 77.08C223.79 77.6773 226.136 77.976 228.611 77.976ZM254.979 63.128C255.747 61.9333 256.472 60.6533 257.155 59.288C257.838 57.8373 258.392 56.5573 258.819 55.448C257.454 55.2773 256.088 55.1493 254.723 55.064C253.358 54.9787 251.95 54.8933 250.499 54.808C251.438 56.4293 252.248 57.9653 252.931 59.416C253.699 60.8667 254.382 62.104 254.979 63.128ZM282.543 123.8C279.3 123.8 276.186 123.032 273.199 121.496C270.127 120.045 267.866 117.784 266.415 114.712C265.903 113.603 265.562 112.408 265.391 111.128C265.22 109.933 265.135 108.739 265.135 107.544V106.136C265.135 105.453 265.22 104.813 265.391 104.216C265.562 103.704 265.988 103.448 266.671 103.448C266.842 103.448 266.927 103.533 266.927 103.704C266.927 104.216 266.884 104.728 266.799 105.24C266.714 105.752 266.671 106.307 266.671 106.904C266.671 110.829 267.951 113.816 270.511 115.864C272.986 117.912 276.1 118.936 279.855 118.936C281.391 118.936 282.97 118.765 284.591 118.424C286.212 118.083 287.748 117.613 289.199 117.016C294.575 114.712 299.226 111.427 303.151 107.16C307.162 102.979 310.66 98.2427 313.647 92.952C316.634 87.6613 319.322 82.2853 321.711 76.824C323.076 73.5813 324.271 70.424 325.295 67.352C326.404 64.28 327.386 61.5067 328.239 59.032C327.386 60.2267 326.276 61.6773 324.911 63.384C323.546 65.0907 322.18 66.7547 320.815 68.376C319.45 69.912 318.255 71.1493 317.231 72.088C315.098 74.136 312.794 75.8853 310.319 77.336C307.93 78.7013 305.455 79.384 302.895 79.384C302.042 79.384 301.316 79.2133 300.719 78.872C300.122 78.5307 299.823 77.8907 299.823 76.952C299.823 75.7573 300.122 74.3493 300.719 72.728C301.402 71.1067 302.127 69.4853 302.895 67.864C303.663 66.2427 304.303 64.92 304.815 63.896C305.839 61.9333 306.82 59.9707 307.759 58.008C308.698 56.0453 309.508 54.3813 310.191 53.016C310.874 51.736 311.215 50.8827 311.215 50.456C311.215 49.7733 310.703 49.7733 309.679 50.456C308.74 51.1387 307.844 51.8213 306.991 52.504C305.114 54.296 303.151 56.4293 301.103 58.904C299.055 61.2933 297.476 63.2133 296.367 64.664C296.111 65.0053 295.898 65.176 295.727 65.176C295.556 65.176 295.471 64.9627 295.471 64.536C295.471 63.8533 295.684 63.2133 296.111 62.616C297.306 60.9093 298.714 59.032 300.335 56.984C301.956 54.936 303.62 52.9733 305.327 51.096C306.948 49.3893 308.612 47.7253 310.319 46.104C312.026 44.4827 314.202 43.672 316.847 43.672C318.639 43.672 319.535 44.3547 319.535 45.72C319.535 46.9147 319.023 48.28 317.999 49.816C317.402 50.7547 316.463 52.3333 315.183 54.552C313.903 56.7707 312.58 59.2027 311.215 61.848C309.935 64.408 308.826 66.7973 307.887 69.016C306.948 71.2347 306.479 72.856 306.479 73.88C306.479 75.0747 307.076 75.672 308.271 75.672C309.21 75.672 310.362 75.2027 311.727 74.264C313.092 73.24 314.5 72.0453 315.951 70.68C318.426 68.2907 320.687 65.6453 322.735 62.744C324.868 59.8427 326.703 57.0693 328.239 54.424C328.495 53.9973 328.922 53.2293 329.519 52.12C330.202 51.0107 330.884 49.944 331.567 48.92C332.335 47.896 332.932 47.2987 333.359 47.128C333.786 46.9573 334.639 46.488 335.919 45.72C337.199 44.952 338.479 44.44 339.759 44.184C340.954 43.928 341.85 43.8 342.447 43.8C343.386 43.8 343.855 44.056 343.855 44.568C343.855 45.2507 343.471 45.592 342.703 45.592C341.764 45.592 340.911 45.848 340.143 46.36C339.375 46.7867 338.778 47.3413 338.351 48.024C337.583 49.1333 336.474 51.1387 335.023 54.04C333.658 56.9413 332.122 60.312 330.415 64.152C328.794 67.9067 327.172 71.7467 325.551 75.672C323.93 79.512 322.436 83.0533 321.071 86.296C319.023 91.16 316.676 95.896 314.031 100.504C311.386 105.197 308.271 109.379 304.687 113.048C301.188 116.803 297.007 119.747 292.143 121.88C289.242 123.16 286.042 123.8 282.543 123.8ZM357.135 79.384C356.282 79.384 355.556 79.2133 354.959 78.872C354.362 78.5307 354.063 77.8907 354.063 76.952C354.063 75.7573 354.362 74.392 354.959 72.856C355.556 71.32 356.239 69.8267 357.007 68.376C357.775 66.84 358.458 65.6027 359.055 64.664C356.068 67.8213 352.954 70.808 349.711 73.624C348.09 74.9893 346.298 76.2693 344.335 77.464C342.372 78.6587 340.282 79.256 338.063 79.256C337.21 79.256 336.612 79 336.271 78.488C335.93 77.8907 335.759 77.208 335.759 76.44C335.759 76.0133 335.802 75.7147 335.887 75.544C336.314 72.216 337.38 68.76 339.087 65.176C340.794 61.592 342.884 58.2213 345.359 55.064C347.834 51.9067 350.351 49.3467 352.911 47.384C355.812 45.1653 359.012 44.056 362.511 44.056H377.231C377.658 44.056 377.871 44.2267 377.871 44.568C377.871 45.2507 377.487 45.592 376.719 45.592C375.866 45.592 375.012 46.1467 374.159 47.256C373.306 48.28 372.666 49.1333 372.239 49.816C371.642 50.7547 370.703 52.3333 369.423 54.552C368.143 56.7707 366.82 59.2027 365.455 61.848C364.175 64.408 363.066 66.7973 362.127 69.016C361.188 71.2347 360.719 72.856 360.719 73.88C360.719 75.0747 361.316 75.672 362.511 75.672C363.791 75.672 365.242 75.0747 366.863 73.88C368.484 72.6853 370.106 71.2347 371.727 69.528C373.434 67.736 374.97 65.9867 376.335 64.28C377.786 62.488 378.938 61.08 379.791 60.056C380.303 60.568 380.26 61.2933 379.663 62.232C379.151 63.0853 378.682 63.768 378.255 64.28C376.548 66.4987 374.586 68.8027 372.367 71.192C370.148 73.496 367.716 75.4587 365.071 77.08C362.511 78.616 359.866 79.384 357.135 79.384ZM343.311 74.904C344.335 74.904 345.743 74.1787 347.535 72.728C349.412 71.192 351.418 69.3147 353.551 67.096C355.684 64.792 357.69 62.4027 359.567 59.928C361.444 57.368 362.98 55.064 364.175 53.016C365.455 50.8827 366.095 49.2613 366.095 48.152C366.095 47.2133 365.796 46.5733 365.199 46.232C364.687 45.8907 364.004 45.72 363.151 45.72C361.786 45.72 360.292 46.232 358.671 47.256C357.135 48.1947 355.898 49.1333 354.959 50.072C353.935 51.0107 352.698 52.504 351.247 54.552C349.882 56.5147 348.516 58.6907 347.151 61.08C345.786 63.4693 344.634 65.7733 343.695 67.992C342.756 70.2107 342.287 72.0027 342.287 73.368C342.287 74.392 342.628 74.904 343.311 74.904ZM378.12 80.92C377.779 80.92 377.779 80.536 378.12 79.768C378.547 79 378.931 78.1467 379.272 77.208C379.699 76.2693 380.125 75.2453 380.552 74.136C381.405 72.088 382.344 69.784 383.368 67.224C384.392 64.664 385.373 62.1893 386.312 59.8C387.251 57.3253 388.061 55.2347 388.744 53.528C389.512 51.736 390.024 50.584 390.28 50.072C389.085 51.352 387.635 52.9733 385.928 54.936C384.307 56.8133 382.771 58.648 381.32 60.44C379.869 62.232 378.76 63.64 377.992 64.664C377.736 65.0053 377.523 65.176 377.352 65.176C377.181 65.176 377.096 64.9627 377.096 64.536C377.096 63.8533 377.309 63.2133 377.736 62.616C379.357 60.568 381.149 58.264 383.112 55.704C385.16 53.144 386.995 50.7973 388.616 48.664C390.237 46.4453 391.261 44.9947 391.688 44.312C392.627 44.1413 393.992 43.8853 395.784 43.544C397.661 43.2027 398.941 42.7333 399.624 42.136C399.88 41.88 400.136 41.752 400.392 41.752C400.563 41.752 400.648 41.9227 400.648 42.264C400.733 42.52 400.648 42.8187 400.392 43.16C399.88 43.7573 398.984 45.1653 397.704 47.384C396.509 49.5173 395.187 51.9067 393.736 54.552C392.371 57.1973 391.091 59.5867 389.896 61.72C391.261 60.0987 392.584 58.5627 393.864 57.112C395.229 55.6613 396.168 54.6373 396.68 54.04C397.704 53.016 399.112 51.736 400.904 50.2C402.696 48.664 404.573 47.256 406.536 45.976C408.499 44.696 410.205 43.9707 411.656 43.8C411.997 43.7147 412.296 43.672 412.552 43.672C412.808 43.672 413.064 43.672 413.32 43.672C414.941 43.672 415.752 44.2693 415.752 45.464C415.752 45.976 415.624 46.5733 415.368 47.256C415.112 47.9387 414.771 48.6213 414.344 49.304C413.832 50.328 412.979 51.9493 411.784 54.168C410.589 56.3013 409.523 58.264 408.584 60.056L414.6 54.04C415.624 53.016 417.032 51.736 418.824 50.2C420.616 48.664 422.493 47.256 424.456 45.976C426.419 44.696 428.125 43.9707 429.576 43.8C429.917 43.7147 430.216 43.672 430.472 43.672C430.813 43.672 431.069 43.672 431.24 43.672C433.117 43.672 434.056 44.3547 434.056 45.72C434.056 46.744 433.501 48.1093 432.392 49.816C431.795 50.7547 430.856 52.3333 429.576 54.552C428.296 56.7707 426.973 59.2027 425.608 61.848C424.328 64.408 423.219 66.7973 422.28 69.016C421.341 71.2347 420.872 72.856 420.872 73.88C420.872 75.0747 421.469 75.672 422.664 75.672C423.773 75.672 425.181 75.032 426.888 73.752C428.68 72.3867 430.472 70.7653 432.264 68.888C434.141 67.0107 435.763 65.2187 437.128 63.512C437.725 62.8293 438.28 62.1467 438.792 61.464C439.389 60.696 439.731 60.2693 439.816 60.184C439.987 60.3547 440.072 60.6533 440.072 61.08C440.072 61.6773 439.859 62.2747 439.432 62.872C439.091 63.384 438.749 63.8533 438.408 64.28C436.787 66.4133 434.909 68.632 432.776 70.936C430.728 73.24 428.467 75.2027 425.992 76.824C423.517 78.36 420.872 79.256 418.056 79.512C417.203 79.5973 416.349 79.4267 415.496 79C414.643 78.5733 414.216 77.8907 414.216 76.952C414.216 75.7573 414.515 74.3493 415.112 72.728C415.795 71.1067 416.52 69.4853 417.288 67.864C418.141 66.2427 418.781 64.92 419.208 63.896C420.744 60.9093 422.152 58.0933 423.432 55.448C424.712 52.8027 425.608 50.9253 426.12 49.816C426.376 49.304 426.504 48.8773 426.504 48.536C426.504 47.9387 426.035 47.896 425.096 48.408C424.157 48.92 423.005 49.688 421.64 50.712C420.36 51.736 419.165 52.76 418.056 53.784C416.947 54.7227 416.221 55.3627 415.88 55.704C414.429 57.1547 412.68 59.1173 410.632 61.592C408.669 64.0667 406.835 66.6693 405.128 69.4C403.421 72.0453 402.227 74.52 401.544 76.824C400.691 77.592 399.88 77.976 399.112 77.976C398.515 77.976 398.003 77.7627 397.576 77.336C397.235 76.9093 397.064 76.3973 397.064 75.8C397.064 74.0933 397.576 72.088 398.6 69.784C399.709 67.3947 400.605 65.432 401.288 63.896C402.824 60.9093 404.232 58.0933 405.512 55.448C406.792 52.8027 407.688 50.9253 408.2 49.816C408.456 49.304 408.584 48.8773 408.584 48.536C408.584 47.9387 408.115 47.896 407.176 48.408C406.237 48.92 405.085 49.688 403.72 50.712C402.44 51.736 401.245 52.76 400.136 53.784C399.027 54.7227 398.301 55.3627 397.96 55.704C395.912 57.8373 393.992 60.0133 392.2 62.232C390.493 64.4507 389.043 66.84 387.848 69.4C387.165 70.936 386.44 72.6427 385.672 74.52C384.904 76.3973 384.264 77.976 383.752 79.256C382.643 79.3413 381.533 79.64 380.424 80.152C379.315 80.664 378.547 80.92 378.12 80.92ZM439.525 79.256C438.16 79.256 436.922 79 435.813 78.488C434.789 77.8907 434.277 76.6533 434.277 74.776C434.277 71.7893 435.045 68.8027 436.581 65.816C438.117 62.744 439.696 60.056 441.317 57.752C442.768 55.7893 444.389 53.9547 446.181 52.248C448.058 50.456 450.064 48.92 452.197 47.64C453.562 46.7867 455.397 45.8907 457.701 44.952C460.09 43.928 462.096 43.416 463.717 43.416C465.082 43.416 466.277 43.8 467.301 44.568C468.325 45.2507 468.837 46.5307 468.837 48.408C468.837 51.3093 468.069 54.296 466.533 57.368C465.082 60.3547 463.546 63 461.925 65.304C461.157 66.328 460.389 67.3093 459.621 68.248C458.853 69.1013 458 69.9973 457.061 70.936C460.218 70.936 463.12 70.04 465.765 68.248C468.41 66.3707 470.714 64.1093 472.677 61.464L472.933 61.208C473.189 61.208 473.317 61.464 473.317 61.976C473.317 62.5733 473.146 63.128 472.805 63.64C471.098 66.0293 468.965 68.1627 466.405 70.04C463.845 71.832 460.944 72.728 457.701 72.728C457.36 72.728 457.018 72.728 456.677 72.728C456.336 72.728 455.994 72.6853 455.653 72.6C450.874 77.0373 445.498 79.256 439.525 79.256ZM442.853 77.08C444.048 77.08 445.328 76.6533 446.693 75.8C448.144 74.9467 449.253 74.136 450.021 73.368C451.472 71.9173 452.794 70.3813 453.989 68.76C455.184 67.0533 456.293 65.3467 457.317 63.64C458.512 61.592 459.706 59.16 460.901 56.344C462.096 53.528 462.693 50.8827 462.693 48.408C462.693 46.4453 462.01 45.464 460.645 45.464C459.536 45.464 458.17 45.9333 456.549 46.872C455.013 47.8107 453.861 48.664 453.093 49.432C450.192 52.4187 447.76 55.6613 445.797 59.16C444.688 61.1227 443.493 63.4267 442.213 66.072C440.933 68.7173 440.293 71.1493 440.293 73.368C440.293 73.7093 440.293 74.0507 440.293 74.392C440.378 74.648 440.464 74.9467 440.549 75.288C440.89 76.4827 441.658 77.08 442.853 77.08Z" fill="black" fill-opacity="0.7"/>
</svg>
